<svg width="200" height="200" viewBox="0 0 200 200" xmlns="http://www.w3.org/2000/svg">
  <!-- Definitions for gradients and filters -->
  <defs>
    <!-- Purple gradient for the pin/marker -->
    <linearGradient id="markerGradient" x1="0%" y1="0%" x2="100%" y2="100%">
      <stop offset="0%" stop-color="#AB47BC" />
      <stop offset="100%" stop-color="#6A1B9A" />
    </linearGradient>
    
    <!-- Subtle grid background -->
    <pattern id="grid" width="20" height="20" patternUnits="userSpaceOnUse">
      <path d="M 20 0 L 0 0 0 20" fill="none" stroke="#6A1B9A" stroke-width="0.2" opacity="0.15"/>
    </pattern>
    
    <!-- Signal waves -->
    <radialGradient id="signalWaves" cx="50%" cy="50%" r="50%" fx="50%" fy="50%">
      <stop offset="0%" stop-color="#AB47BC" stop-opacity="0.3" />
      <stop offset="70%" stop-color="#6A1B9A" stop-opacity="0" />
    </radialGradient>
    
    <!-- Shadow effect -->
    <filter id="shadow" x="-20%" y="-20%" width="140%" height="140%">
      <feGaussianBlur in="SourceAlpha" stdDeviation="2" />
      <feOffset dx="1" dy="2" result="offsetblur" />
      <feComponentTransfer>
        <feFuncA type="linear" slope="0.4" />
      </feComponentTransfer>
      <feMerge>
        <feMergeNode />
        <feMergeNode in="SourceGraphic" />
      </feMerge>
    </filter>
  </defs>
  
  <!-- Background with subtle grid -->
  <rect width="200" height="200" fill="url(#grid)" opacity="0.5" />
  
  <!-- Signal waves for real-time tracking -->
  <circle cx="100" cy="105" r="80" fill="url(#signalWaves)" />
  
  <!-- Location marker/pin base with shadow -->
  <g filter="url(#shadow)" transform="translate(100, 105)">
    <path d="M 0,-50 C-30,-50 -40,-30 -40,0 C-40,30 0,50 0,50 C0,50 40,30 40,0 C40,-30 30,-50 0,-50 Z" 
          fill="url(#markerGradient)" />
  </g>
  
  <!-- Stylized bus -->
  <g transform="translate(100, 95)">
    <!-- Bus body -->
    <rect x="-22" y="-12" width="44" height="24" rx="6" ry="6" fill="white" />
    
    <!-- Bus windows -->
    <rect x="-17" y="-9" width="8" height="6" rx="1" ry="1" fill="#6A1B9A" opacity="0.8" />
    <rect x="-7" y="-9" width="14" height="6" rx="1" ry="1" fill="#6A1B9A" opacity="0.8" />
    <rect x="9" y="-9" width="8" height="6" rx="1" ry="1" fill="#6A1B9A" opacity="0.8" />
    
    <!-- Bus wheels -->
    <circle cx="-12" cy="12" r="4" fill="#6A1B9A" />
    <circle cx="12" cy="12" r="4" fill="#6A1B9A" />
    <circle cx="-12" cy="12" r="2" fill="#AB47BC" />
    <circle cx="12" cy="12" r="2" fill="#AB47BC" />
    
    <!-- Bus details -->
    <rect x="-22" y="-2" width="44" height="2" fill="#6A1B9A" opacity="0.5" />
    <rect x="-18" y="5" width="36" height="1" fill="#6A1B9A" opacity="0.3" />
    
    <!-- Bus front lights -->
    <rect x="-22" y="2" width="3" height="2" rx="1" ry="1" fill="#FFECB3" />
    <rect x="19" y="2" width="3" height="2" rx="1" ry="1" fill="#FFECB3" />
  </g>
</svg>
