<?xml version="1.0" encoding="UTF-8"?>
<svg width="1200" height="800" viewBox="0 0 1200 800" fill="none" xmlns="http://www.w3.org/2000/svg">
    <defs>
        <!-- Modern Gradient Definitions -->
        <linearGradient id="purpleGradient" x1="0%" y1="0%" x2="100%" y2="100%">
            <stop offset="0%" stop-color="#2A0944"/>
            <stop offset="100%" stop-color="#3B185F"/>
        </linearGradient>
        
        <radialGradient id="backgroundGlow" cx="50%" cy="50%" r="50%" fx="50%" fy="50%">
            <stop offset="0%" stop-color="#3B185F" stop-opacity="0.8"/>
            <stop offset="100%" stop-color="#2A0944" stop-opacity="0.3"/>
        </radialGradient>

        <!-- Modern Shadow Filter -->
        <filter id="softShadow" x="-20%" y="-20%" width="140%" height="140%">
            <feDropShadow dx="0" dy="15" stdDeviation="15" flood-color="#2A0944" flood-opacity="0.3"/>
        </filter>
    </defs>

    <!-- Background -->
    <rect width="1200" height="800" fill="url(#backgroundGlow)"/>
    
    <!-- Abstract Decoration -->
    <path d="M1200 0H0V800C150 650 400 750 800 500 1000 350 1050 150 1200 0Z" fill="url(#purpleGradient)" opacity="0.1"/>

    <!-- Modern Bus Design -->
    <g transform="translate(300 250)" filter="url(#softShadow)">
        <!-- Sleek Bus Body -->
        <path d="M80 120h460a40 40 0 0 1 40 40v160a40 40 0 0 1-40 40H80a40 40 0 0 1-40-40V160a40 40 0 0 1 40-40z" fill="#3B185F" rx="40"/>
        
        <!-- Futuristic Windows -->
        <g transform="translate(100 140)">
            <rect width="100" height="80" rx="15" fill="#A267AC" opacity="0.8"/>
            <rect x="140" width="100" height="80" rx="15" fill="#A267AC" opacity="0.8"/>
            <rect x="280" width="100" height="80" rx="15" fill="#A267AC" opacity="0.8"/>
        </g>

        <!-- Modern Wheels -->
        <g transform="translate(120 280)">
            <circle cx="0" cy="0" r="40" fill="#2A0944"/>
            <circle cx="400" cy="0" r="40" fill="#2A0944"/>
            <circle cx="0" cy="0" r="25" fill="#A267AC"/>
            <circle cx="400" cy="0" r="25" fill="#A267AC"/>
        </g>

        <!-- Glass Details -->
        <path d="M80 120h460l-20-40H100l-20 40z" fill="#A267AC" opacity="0.4"/>
    </g>

    <!-- Dynamic Route Line -->
    <path d="M200 450C400 200 800 100 1000 450" stroke="#FFA1F5" stroke-width="8" stroke-linecap="round" stroke-dasharray="20 15" opacity="0.8">
        <animate attributeName="stroke-dashoffset" from="200" to="0" dur="8s" repeatCount="indefinite"/>
    </path>

    <!-- Modern Location Pins -->
    <g fill="#FFA1F5">
        <g transform="translate(200 450)">
            <circle r="25"/>
            <path d="M0-35v35h15l-7.5-12.5z" transform="scale(1 -1)"/>
        </g>
        <g transform="translate(1000 450)">
            <circle r="25"/>
            <path d="M0-35v35h15l-7.5-12.5z" transform="scale(1 -1)"/>
        </g>
    </g>

    <!-- Animated Connection Waves -->
    <g transform="translate(600 400)" opacity="0.6">
        <circle r="50" stroke="#A267AC" stroke-width="4" fill="none">
            <animate attributeName="r" from="50" to="80" dur="3s" repeatCount="indefinite"/>
            <animate attributeName="opacity" from="0.6" to="0" dur="3s" repeatCount="indefinite"/>
        </circle>
        <circle r="30" stroke="#FFA1F5" stroke-width="4" fill="none">
            <animate attributeName="r" from="30" to="60" dur="2.5s" repeatCount="indefinite"/>
            <animate attributeName="opacity" from="0.6" to="0" dur="2.5s" repeatCount="indefinite"/>
        </circle>
    </g>
</svg>